<?xml version="1.0" standalone="no"?><!DOCTYPE svg PUBLIC "-//W3C//DTD SVG 1.1//EN" "http://www.w3.org/Graphics/SVG/1.1/DTD/svg11.dtd"><svg t="1590287761833" class="icon" viewBox="0 0 1024 1024" version="1.1" xmlns="http://www.w3.org/2000/svg" p-id="1090" width="200" height="200" xmlns:xlink="http://www.w3.org/1999/xlink"><defs><style type="text/css"></style></defs><path d="M864.711111 931.081481c0 16.118519-13.274074 29.392593-29.392592 29.392593H188.681481c-16.118519 0-29.392593-13.274074-29.392592-29.392593V536.651852c0-16.118519 13.274074-29.392593 29.392592-29.392593 16.118519 0 29.392593 13.274074 29.392593 29.392593V872.296296c0 16.118519 13.274074 29.392593 29.392593 29.392593H777.481481c16.118519 0 29.392593-13.274074 29.392593-29.392593V536.651852c0-16.118519 13.274074-29.392593 29.392593-29.392593 16.118519 0 29.392593 13.274074 29.392592 29.392593v394.429629z m0 29.392593M958.577778 447.525926l-94.814815-91.97037V167.822222c0-16.118519-13.274074-28.444444-28.444444-28.444444H734.814815c-16.118519 0-28.444444 13.274074-28.444445 28.444444v53.096297L531.911111 71.111111c-11.377778-9.481481-27.496296-9.481481-37.925926 0L66.37037 447.525926c-12.325926 10.42963-13.274074 29.392593-2.844444 40.77037 10.42963 12.325926 29.392593 13.274074 41.718518 2.844445l388.740741-343.22963c11.377778-9.481481 27.496296-9.481481 37.925926 0l231.348148 197.214815 40.770371 36.02963 112.829629 108.088888c11.377778 11.377778 30.340741 11.377778 41.718519-0.948148 11.377778-10.42963 11.377778-29.392593 0-40.77037z m-194.370371-180.148148v-48.355556c0-11.377778 9.481481-20.859259 20.85926-20.859259 11.377778 0 20.859259 9.481481 20.859259 20.859259v85.333334l-41.718519-36.977778z" fill="#0097FF" p-id="1091"></path><path d="M631.466667 570.785185c14.222222 0 26.548148-13.274074 26.548148-29.392592 0-16.118519-12.325926-29.392593-26.548148-29.392593h-79.644445l83.437037-79.644444c10.42963-11.377778 11.377778-28.444444 1.896297-39.822223-3.792593-5.688889-10.42963-9.481481-18.014815-9.481481-6.637037-0.948148-14.222222 1.896296-18.962963 6.637037l-88.177778 85.333333-89.125926-84.385185c-4.740741-4.740741-12.325926-6.637037-18.962963-6.637037-6.637037 0.948148-13.274074 3.792593-18.014815 9.481481-9.481481 11.377778-8.533333 29.392593 1.896297 39.822223l84.385185 79.644444h-79.644445c-14.222222 0-26.548148 13.274074-26.548148 29.392593 0 16.118519 12.325926 29.392593 26.548148 29.392592h92.918519v43.614815h-92.918519c-14.222222 0-26.548148 13.274074-26.548148 29.392593 0 16.118519 12.325926 29.392593 26.548148 29.392592h92.918519v72.05926c0 16.118519 12.325926 29.392593 26.548148 29.392592 14.222222 0 26.548148-13.274074 26.548148-29.392592v-72.05926h92.918519c14.222222 0 26.548148-13.274074 26.548148-29.392592 0-16.118519-12.325926-29.392593-26.548148-29.392593h-92.918519v-43.614815h92.918519z" fill="#0097FF" p-id="1092"></path></svg>